ISO-10303-21;
HEADER;
FILE_DESCRIPTION (( 'STEP AP214' ),
    '1' );
FILE_NAME ('ECS-.655-12.5-13.STEP',
    '2020-11-21T03:22:50',
    ( '' ),
    ( '' ),
    'SwSTEP 2.0',
    'SolidWorks 2017',
    '' );
FILE_SCHEMA (( 'AUTOMOTIVE_DESIGN' ));
ENDSEC;

DATA;
#1 = CARTESIAN_POINT ( 'NONE',  ( -0.3499999999999999800, -10.00000000000000000, 0.1300000000000000000 ) ) ;
#2 = FACE_OUTER_BOUND ( 'NONE', #10, .T. ) ;
#3 = STYLED_ITEM ( 'NONE', ( #379 ), #231 ) ;
#4 = SURFACE_SIDE_STYLE ('',( #266 ) ) ;
#5 = CARTESIAN_POINT ( 'NONE',  ( 0.3499999999999999800, -10.00000000000000000, 0.0000000000000000000 ) ) ;
#6 = FILL_AREA_STYLE ('',( #366 ) ) ;
#7 = DIRECTION ( 'NONE',  ( 0.0000000000000000000, 0.0000000000000000000, 1.000000000000000000 ) ) ;
#8 = CIRCLE ( 'NONE', #135, 0.2999999999999999300 ) ;
#9 = VERTEX_POINT ( 'NONE', #373 ) ;
#10 = EDGE_LOOP ( 'NONE', ( #356, #99, #150, #206 ) ) ;
#11 = FILL_AREA_STYLE ('',( #289 ) ) ;
#12 = DIRECTION ( 'NONE',  ( 0.0000000000000000000, -1.000000000000000000, 0.0000000000000000000 ) ) ;
#13 = FACE_OUTER_BOUND ( 'NONE', #160, .T. ) ;
#14 = AXIS2_PLACEMENT_3D ( 'NONE', #386, #30, #221 ) ;
#15 = PRODUCT_DEFINITION_CONTEXT ( 'detailed design', #35, 'design' ) ;
#16 = AXIS2_PLACEMENT_3D ( 'NONE', #391, #29, #338 ) ;
#17 = LINE ( 'NONE', #351, #253 ) ;
#18 = VERTEX_POINT ( 'NONE', #292 ) ;
#19 = DIRECTION ( 'NONE',  ( 0.0000000000000000000, 0.0000000000000000000, -1.000000000000000000 ) ) ;
#20 = ORIENTED_EDGE ( 'NONE', *, *, #347, .F. ) ;
#21 = EDGE_CURVE ( 'NONE', #18, #308, #149, .T. ) ;
#22 = DIRECTION ( 'NONE',  ( 0.0000000000000000000, -1.000000000000000000, 0.0000000000000000000 ) ) ;
#23 = ORIENTED_EDGE ( 'NONE', *, *, #239, .F. ) ;
#24 = CARTESIAN_POINT ( 'NONE',  ( 9.184850993605152100E-017, 5.899999999999999500, -0.7500000000000002200 ) ) ;
#25 = EDGE_CURVE ( 'NONE', #349, #192, #307, .T. ) ;
#26 = ADVANCED_FACE ( 'NONE', ( #68 ), #128, .T. ) ;
#27 = FACE_OUTER_BOUND ( 'NONE', #329, .T. ) ;
#28 = CARTESIAN_POINT ( 'NONE',  ( -0.3499999999999999800, 0.0000000000000000000, 0.0000000000000000000 ) ) ;
#29 = DIRECTION ( 'NONE',  ( 0.0000000000000000000, 1.000000000000000000, 0.0000000000000000000 ) ) ;
#30 = DIRECTION ( 'NONE',  ( 0.0000000000000000000, -1.000000000000000000, 0.0000000000000000000 ) ) ;
#31 = AXIS2_PLACEMENT_3D ( 'NONE', #156, #40, #127 ) ;
#32 = DIRECTION ( 'NONE',  ( 1.224646799147353700E-016, 0.0000000000000000000, -1.000000000000000000 ) ) ;
#33 = ORIENTED_EDGE ( 'NONE', *, *, #250, .T. ) ;
#34 = VERTEX_POINT ( 'NONE', #342 ) ;
#35 = APPLICATION_CONTEXT ( 'automotive_design' ) ;
#36 = ORIENTED_EDGE ( 'NONE', *, *, #79, .T. ) ;
#37 = DIRECTION ( 'NONE',  ( 1.000000000000000000, 0.0000000000000000000, 0.0000000000000000000 ) ) ;
#38 = DIRECTION ( 'NONE',  ( 0.0000000000000000000, -1.000000000000000000, 0.0000000000000000000 ) ) ;
#39 = CARTESIAN_POINT ( 'NONE',  ( -0.3499999999999999800, 0.0000000000000000000, -0.1300000000000000000 ) ) ;
#40 = DIRECTION ( 'NONE',  ( 0.0000000000000000000, 1.000000000000000000, 0.0000000000000000000 ) ) ;
#41 = STYLED_ITEM ( 'NONE', ( #224 ), #304 ) ;
#42 = ORIENTED_EDGE ( 'NONE', *, *, #267, .T. ) ;
#43 =( GEOMETRIC_REPRESENTATION_CONTEXT ( 3 ) GLOBAL_UNCERTAINTY_ASSIGNED_CONTEXT ( ( #240 ) ) GLOBAL_UNIT_ASSIGNED_CONTEXT ( ( #96, #265, #227 ) ) REPRESENTATION_CONTEXT ( 'NONE', 'WORKASPACE' ) );
#44 = ADVANCED_FACE ( 'NONE', ( #374 ), #58, .T. ) ;
#45 = DIRECTION ( 'NONE',  ( 0.0000000000000000000, -1.000000000000000000, 0.0000000000000000000 ) ) ;
#46 = CARTESIAN_POINT ( 'NONE',  ( 0.0000000000000000000, 5.899999999999999500, 0.0000000000000000000 ) ) ;
#47 = ORIENTED_EDGE ( 'NONE', *, *, #79, .F. ) ;
#48 = AXIS2_PLACEMENT_3D ( 'NONE', #72, #345, #100 ) ;
#49 = DIRECTION ( 'NONE',  ( 0.0000000000000000000, -0.0000000000000000000, -1.000000000000000000 ) ) ;
#50 =( NAMED_UNIT ( * ) PLANE_ANGLE_UNIT ( ) SI_UNIT ( $, .RADIAN. ) );
#51 = VECTOR ( 'NONE', #101, 1000.000000000000000 ) ;
#52 = PRESENTATION_STYLE_ASSIGNMENT (( #56 ) ) ;
#53 = VERTEX_POINT ( 'NONE', #262 ) ;
#54 = DIRECTION ( 'NONE',  ( 0.0000000000000000000, 0.0000000000000000000, 1.000000000000000000 ) ) ;
#55 = EDGE_CURVE ( 'NONE', #53, #34, #368, .T. ) ;
#56 = SURFACE_STYLE_USAGE ( .BOTH. , #217 ) ;
#57 = CARTESIAN_POINT ( 'NONE',  ( 0.0000000000000000000, 0.0000000000000000000, 0.0000000000000000000 ) ) ;
#58 = TOROIDAL_SURFACE ( 'NONE', #48, 0.7500000000000002200, 0.2999999999999999900 ) ;
#59 = ORIENTED_EDGE ( 'NONE', *, *, #25, .F. ) ;
#60 =( GEOMETRIC_REPRESENTATION_CONTEXT ( 3 ) GLOBAL_UNCERTAINTY_ASSIGNED_CONTEXT ( ( #339 ) ) GLOBAL_UNIT_ASSIGNED_CONTEXT ( ( #281, #190, #219 ) ) REPRESENTATION_CONTEXT ( 'NONE', 'WORKASPACE' ) );
#61 = MANIFOLD_SOLID_BREP ( 'Body', #86 ) ;
#62 = AXIS2_PLACEMENT_3D ( 'NONE', #213, #22, #322 ) ;
#63 = FACE_OUTER_BOUND ( 'NONE', #323, .T. ) ;
#64 = CIRCLE ( 'NONE', #376, 1.050000000000000000 ) ;
#65 = ORIENTED_EDGE ( 'NONE', *, *, #347, .T. ) ;
#66 = STYLED_ITEM ( 'NONE', ( #52 ), #310 ) ;
#67 = CARTESIAN_POINT ( 'NONE',  ( -0.3499999999999999800, 0.0000000000000000000, 0.0000000000000000000 ) ) ;
#68 = FACE_OUTER_BOUND ( 'NONE', #354, .T. ) ;
#69 = ORIENTED_EDGE ( 'NONE', *, *, #152, .T. ) ;
#70 = DIRECTION ( 'NONE',  ( 0.0000000000000000000, 0.0000000000000000000, -1.000000000000000000 ) ) ;
#71 = AXIS2_PLACEMENT_3D ( 'NONE', #5, #38, #230 ) ;
#72 = CARTESIAN_POINT ( 'NONE',  ( 0.0000000000000000000, 5.899999999999999500, 0.0000000000000000000 ) ) ;
#73 = DIRECTION ( 'NONE',  ( 0.0000000000000000000, 1.000000000000000000, 0.0000000000000000000 ) ) ;
#74 = LINE ( 'NONE', #1, #123 ) ;
#75 = CYLINDRICAL_SURFACE ( 'NONE', #335, 1.050000000000000000 ) ;
#76 = ORIENTED_EDGE ( 'NONE', *, *, #258, .T. ) ;
#77 = DIRECTION ( 'NONE',  ( 0.0000000000000000000, 0.0000000000000000000, -1.000000000000000000 ) ) ;
#78 = PRODUCT_DEFINITION_FORMATION_WITH_SPECIFIED_SOURCE ( 'ANY', '', #195, .NOT_KNOWN. ) ;
#79 = EDGE_CURVE ( 'NONE', #249, #110, #179, .T. ) ;
#80 = EDGE_LOOP ( 'NONE', ( #20, #321 ) ) ;
#81 = CARTESIAN_POINT ( 'NONE',  ( 0.0000000000000000000, 5.899999999999999500, 0.7500000000000002200 ) ) ;
#82 = DIRECTION ( 'NONE',  ( -0.0000000000000000000, 1.000000000000000000, -0.0000000000000000000 ) ) ;
#83 = PRESENTATION_LAYER_ASSIGNMENT (  '', '', ( #41 ) ) ;
#84 = CIRCLE ( 'NONE', #270, 0.1300000000000000000 ) ;
#85 = DIRECTION ( 'NONE',  ( 0.0000000000000000000, 0.0000000000000000000, 1.000000000000000000 ) ) ;
#86 = CLOSED_SHELL ( 'NONE', ( #44, #88, #140, #353, #302, #115 ) ) ;
#87 = EDGE_CURVE ( 'NONE', #144, #89, #187, .T. ) ;
#88 = ADVANCED_FACE ( 'NONE', ( #93 ), #268, .T. ) ;
#89 = VERTEX_POINT ( 'NONE', #130 ) ;
#90 = DIRECTION ( 'NONE',  ( 0.0000000000000000000, -1.000000000000000000, 0.0000000000000000000 ) ) ;
#91 = AXIS2_PLACEMENT_3D ( 'NONE', #208, #45, #49 ) ;
#92 =( LENGTH_UNIT ( ) NAMED_UNIT ( * ) SI_UNIT ( .MILLI., .METRE. ) );
#93 = FACE_OUTER_BOUND ( 'NONE', #116, .T. ) ;
#94 = APPLICATION_CONTEXT ( 'automotive_design' ) ;
#95 = MECHANICAL_DESIGN_GEOMETRIC_PRESENTATION_REPRESENTATION (  '', ( #66 ), #60 ) ;
#96 =( LENGTH_UNIT ( ) NAMED_UNIT ( * ) SI_UNIT ( .MILLI., .METRE. ) );
#97 = FACE_OUTER_BOUND ( 'NONE', #381, .T. ) ;
#98 = EDGE_LOOP ( 'NONE', ( #390, #237 ) ) ;
#99 = ORIENTED_EDGE ( 'NONE', *, *, #87, .F. ) ;
#100 = DIRECTION ( 'NONE',  ( 0.0000000000000000000, 0.0000000000000000000, 1.000000000000000000 ) ) ;
#101 = DIRECTION ( 'NONE',  ( -0.0000000000000000000, -1.000000000000000000, -0.0000000000000000000 ) ) ;
#102 = CARTESIAN_POINT ( 'NONE',  ( 0.3499999999999999800, -10.00000000000000000, 0.0000000000000000000 ) ) ;
#103 = ORIENTED_EDGE ( 'NONE', *, *, #55, .T. ) ;
#104 =( GEOMETRIC_REPRESENTATION_CONTEXT ( 3 ) GLOBAL_UNCERTAINTY_ASSIGNED_CONTEXT ( ( #324 ) ) GLOBAL_UNIT_ASSIGNED_CONTEXT ( ( #141, #50, #111 ) ) REPRESENTATION_CONTEXT ( 'NONE', 'WORKASPACE' ) );
#105 = CARTESIAN_POINT ( 'NONE',  ( 0.3499999999999999800, -10.00000000000000000, 0.1300000000000000000 ) ) ;
#106 = VECTOR ( 'NONE', #303, 1000.000000000000000 ) ;
#107 = CYLINDRICAL_SURFACE ( 'NONE', #125, 0.1300000000000000000 ) ;
#108 = ORIENTED_EDGE ( 'NONE', *, *, #314, .T. ) ;
#109 = CARTESIAN_POINT ( 'NONE',  ( -0.3499999999999999800, -10.00000000000000000, 0.0000000000000000000 ) ) ;
#110 = VERTEX_POINT ( 'NONE', #39 ) ;
#111 =( NAMED_UNIT ( * ) SI_UNIT ( $, .STERADIAN. ) SOLID_ANGLE_UNIT ( ) );
#112 = DIRECTION ( 'NONE',  ( -1.000000000000000000, 0.0000000000000000000, 0.0000000000000000000 ) ) ;
#113 = AXIS2_PLACEMENT_3D ( 'NONE', #46, #357, #238 ) ;
#114 = ORIENTED_EDGE ( 'NONE', *, *, #358, .F. ) ;
#115 = ADVANCED_FACE ( 'NONE', ( #13 ), #154, .T. ) ;
#116 = EDGE_LOOP ( 'NONE', ( #108, #103, #298, #282 ) ) ;
#117 = CARTESIAN_POINT ( 'NONE',  ( -0.3499999999999999800, -10.00000000000000000, 0.0000000000000000000 ) ) ;
#118 = DIRECTION ( 'NONE',  ( 0.0000000000000000000, 1.000000000000000000, 0.0000000000000000000 ) ) ;
#119 = PRODUCT_DEFINITION ( 'UNKNOWN', '', #78, #15 ) ;
#120 = CARTESIAN_POINT ( 'NONE',  ( 0.0000000000000000000, 0.0000000000000000000, -1.050000000000000000 ) ) ;
#121 = CARTESIAN_POINT ( 'NONE',  ( 0.0000000000000000000, 5.899999999999999500, 0.0000000000000000000 ) ) ;
#122 = DIRECTION ( 'NONE',  ( 0.0000000000000000000, -0.0000000000000000000, -1.000000000000000000 ) ) ;
#123 = VECTOR ( 'NONE', #280, 1000.000000000000000 ) ;
#124 = ORIENTED_EDGE ( 'NONE', *, *, #250, .F. ) ;
#125 = AXIS2_PLACEMENT_3D ( 'NONE', #117, #82, #85 ) ;
#126 = LINE ( 'NONE', #183, #106 ) ;
#127 = DIRECTION ( 'NONE',  ( 0.0000000000000000000, 0.0000000000000000000, 1.000000000000000000 ) ) ;
#128 = PLANE ( 'NONE',  #367 ) ;
#129 = EDGE_LOOP ( 'NONE', ( #229, #42, #204, #220 ) ) ;
#130 = CARTESIAN_POINT ( 'NONE',  ( 0.3499999999999999800, -10.00000000000000000, -0.1300000000000000000 ) ) ;
#131 = AXIS2_PLACEMENT_3D ( 'NONE', #163, #200, #7 ) ;
#132 = DIRECTION ( 'NONE',  ( -0.0000000000000000000, 1.000000000000000000, -0.0000000000000000000 ) ) ;
#133 = PRESENTATION_STYLE_ASSIGNMENT (( #157 ) ) ;
#134 = SURFACE_STYLE_FILL_AREA ( #364 ) ;
#135 = AXIS2_PLACEMENT_3D ( 'NONE', #24, #398, #32 ) ;
#136 = EDGE_CURVE ( 'NONE', #375, #9, #260, .T. ) ;
#137 = ORIENTED_EDGE ( 'NONE', *, *, #21, .T. ) ;
#138 = ORIENTED_EDGE ( 'NONE', *, *, #55, .F. ) ;
#139 = PLANE ( 'NONE',  #14 ) ;
#140 = ADVANCED_FACE ( 'NONE', ( #63 ), #75, .T. ) ;
#141 =( LENGTH_UNIT ( ) NAMED_UNIT ( * ) SI_UNIT ( .MILLI., .METRE. ) );
#142 = EDGE_CURVE ( 'NONE', #144, #308, #17, .T. ) ;
#143 = CIRCLE ( 'NONE', #189, 0.1300000000000000000 ) ;
#144 = VERTEX_POINT ( 'NONE', #105 ) ;
#145 = PLANE ( 'NONE',  #16 ) ;
#146 = DIRECTION ( 'NONE',  ( -0.0000000000000000000, 1.000000000000000000, -0.0000000000000000000 ) ) ;
#147 = CARTESIAN_POINT ( 'NONE',  ( 0.0000000000000000000, 5.899999999999999500, -1.050000000000000000 ) ) ;
#148 = DIRECTION ( 'NONE',  ( 0.0000000000000000000, 0.0000000000000000000, 1.000000000000000000 ) ) ;
#149 = CIRCLE ( 'NONE', #161, 0.1300000000000000000 ) ;
#150 = ORIENTED_EDGE ( 'NONE', *, *, #142, .T. ) ;
#151 = CARTESIAN_POINT ( 'NONE',  ( -0.3499999999999999800, -10.00000000000000000, 0.0000000000000000000 ) ) ;
#152 = EDGE_CURVE ( 'NONE', #89, #18, #311, .T. ) ;
#153 = PRODUCT_CONTEXT ( 'NONE', #94, 'mechanical' ) ;
#154 = TOROIDAL_SURFACE ( 'NONE', #131, 0.7500000000000002200, 0.2999999999999999900 ) ;
#155 = COLOUR_RGB ( '',0.7921568627450980000, 0.8196078431372548800, 0.9333333333333333500 ) ;
#156 = CARTESIAN_POINT ( 'NONE',  ( 0.0000000000000000000, 6.200000000000000200, 0.0000000000000000000 ) ) ;
#157 = SURFACE_STYLE_USAGE ( .BOTH. , #228 ) ;
#158 = COLOUR_RGB ( '',0.7921568627450980000, 0.8196078431372548800, 0.9333333333333333500 ) ;
#159 = DIRECTION ( 'NONE',  ( 0.0000000000000000000, -0.0000000000000000000, -1.000000000000000000 ) ) ;
#160 = EDGE_LOOP ( 'NONE', ( #172, #124, #76, #173 ) ) ;
#161 = AXIS2_PLACEMENT_3D ( 'NONE', #232, #197, #70 ) ;
#162 = DIRECTION ( 'NONE',  ( 0.0000000000000000000, -1.000000000000000000, 0.0000000000000000000 ) ) ;
#163 = CARTESIAN_POINT ( 'NONE',  ( 0.0000000000000000000, 5.899999999999999500, 0.0000000000000000000 ) ) ;
#164 = DIRECTION ( 'NONE',  ( 0.0000000000000000000, 0.0000000000000000000, 1.000000000000000000 ) ) ;
#165 = VECTOR ( 'NONE', #380, 1000.000000000000000 ) ;
#166 = ORIENTED_EDGE ( 'NONE', *, *, #87, .T. ) ;
#167 = EDGE_CURVE ( 'NONE', #9, #375, #143, .T. ) ;
#168 = CARTESIAN_POINT ( 'NONE',  ( 0.3499999999999999800, -10.00000000000000000, -0.1300000000000000000 ) ) ;
#169 = CARTESIAN_POINT ( 'NONE',  ( -0.3499999999999999800, -10.00000000000000000, 0.0000000000000000000 ) ) ;
#170 = CYLINDRICAL_SURFACE ( 'NONE', #352, 0.1300000000000000000 ) ;
#171 = CIRCLE ( 'NONE', #299, 0.2999999999999999300 ) ;
#172 = ORIENTED_EDGE ( 'NONE', *, *, #271, .F. ) ;
#173 = ORIENTED_EDGE ( 'NONE', *, *, #178, .F. ) ;
#174 = PLANE ( 'NONE',  #91 ) ;
#175 = PRODUCT_RELATED_PRODUCT_CATEGORY ( 'part', '', ( #195 ) ) ;
#176 = CARTESIAN_POINT ( 'NONE',  ( 0.0000000000000000000, 0.0000000000000000000, 0.0000000000000000000 ) ) ;
#177 = CARTESIAN_POINT ( 'NONE',  ( -0.3499999999999999800, 0.0000000000000000000, 0.0000000000000000000 ) ) ;
#178 = EDGE_CURVE ( 'NONE', #192, #349, #389, .T. ) ;
#179 = CIRCLE ( 'NONE', #279, 0.1300000000000000000 ) ;
#180 = CARTESIAN_POINT ( 'NONE',  ( -0.3499999999999999800, -10.00000000000000000, -0.1300000000000000000 ) ) ;
#181 = EDGE_LOOP ( 'NONE', ( #114, #235 ) ) ;
#182 = DIRECTION ( 'NONE',  ( -0.0000000000000000000, 1.000000000000000000, -0.0000000000000000000 ) ) ;
#183 = CARTESIAN_POINT ( 'NONE',  ( 0.0000000000000000000, 6.200000000000000200, -1.050000000000000000 ) ) ;
#184 = ADVANCED_FACE ( 'NONE', ( #247 ), #170, .T. ) ;
#185 = CARTESIAN_POINT ( 'NONE',  ( -0.3499999999999999800, -10.00000000000000000, 0.1300000000000000000 ) ) ;
#186 = AXIS2_PLACEMENT_3D ( 'NONE', #343, #196, #37 ) ;
#187 = CIRCLE ( 'NONE', #71, 0.1300000000000000000 ) ;
#188 = ORIENTED_EDGE ( 'NONE', *, *, #142, .F. ) ;
#189 = AXIS2_PLACEMENT_3D ( 'NONE', #169, #207, #19 ) ;
#190 =( NAMED_UNIT ( * ) PLANE_ANGLE_UNIT ( ) SI_UNIT ( $, .RADIAN. ) );
#191 =( NAMED_UNIT ( * ) SI_UNIT ( $, .STERADIAN. ) SOLID_ANGLE_UNIT ( ) );
#192 = VERTEX_POINT ( 'NONE', #300 ) ;
#193 =( NAMED_UNIT ( * ) SI_UNIT ( $, .STERADIAN. ) SOLID_ANGLE_UNIT ( ) );
#194 = EDGE_CURVE ( 'NONE', #110, #249, #344, .T. ) ;
#195 = PRODUCT ( 'ECS-.655-12.5-13', 'ECS-.655-12.5-13', '', ( #153 ) ) ;
#196 = DIRECTION ( 'NONE',  ( 0.0000000000000000000, 0.0000000000000000000, 1.000000000000000000 ) ) ;
#197 = DIRECTION ( 'NONE',  ( 0.0000000000000000000, -1.000000000000000000, 0.0000000000000000000 ) ) ;
#198 = EDGE_CURVE ( 'NONE', #34, #397, #301, .T. ) ;
#199 = ORIENTED_EDGE ( 'NONE', *, *, #326, .T. ) ;
#200 = DIRECTION ( 'NONE',  ( 0.0000000000000000000, 1.000000000000000000, 0.0000000000000000000 ) ) ;
#201 = CARTESIAN_POINT ( 'NONE',  ( 0.3499999999999999800, -10.00000000000000000, 0.0000000000000000000 ) ) ;
#202 = COLOUR_RGB ( '',0.7921568627450980000, 0.8196078431372548800, 0.9333333333333333500 ) ;
#203 = DIRECTION ( 'NONE',  ( -0.0000000000000000000, -1.000000000000000000, -0.0000000000000000000 ) ) ;
#204 = ORIENTED_EDGE ( 'NONE', *, *, #194, .T. ) ;
#205 = ORIENTED_EDGE ( 'NONE', *, *, #314, .F. ) ;
#206 = ORIENTED_EDGE ( 'NONE', *, *, #358, .T. ) ;
#207 = DIRECTION ( 'NONE',  ( 0.0000000000000000000, -1.000000000000000000, 0.0000000000000000000 ) ) ;
#208 = CARTESIAN_POINT ( 'NONE',  ( -0.3499999999999999800, -10.00000000000000000, 0.0000000000000000000 ) ) ;
#209 = CYLINDRICAL_SURFACE ( 'NONE', #245, 0.1300000000000000000 ) ;
#210 = ORIENTED_EDGE ( 'NONE', *, *, #239, .T. ) ;
#211 = SURFACE_SIDE_STYLE ('',( #233 ) ) ;
#212 = AXIS2_PLACEMENT_3D ( 'NONE', #57, #118, #252 ) ;
#213 = CARTESIAN_POINT ( 'NONE',  ( 0.3499999999999999800, -10.00000000000000000, 0.0000000000000000000 ) ) ;
#214 = AXIS2_PLACEMENT_3D ( 'NONE', #109, #12, #320 ) ;
#215 = DIRECTION ( 'NONE',  ( 0.0000000000000000000, 1.000000000000000000, 0.0000000000000000000 ) ) ;
#216 = STYLED_ITEM ( 'NONE', ( #133 ), #61 ) ;
#217 = SURFACE_SIDE_STYLE ('',( #134 ) ) ;
#218 = DIRECTION ( 'NONE',  ( 0.0000000000000000000, 0.0000000000000000000, 1.000000000000000000 ) ) ;
#219 =( NAMED_UNIT ( * ) SI_UNIT ( $, .STERADIAN. ) SOLID_ANGLE_UNIT ( ) );
#220 = ORIENTED_EDGE ( 'NONE', *, *, #394, .F. ) ;
#221 = DIRECTION ( 'NONE',  ( 0.0000000000000000000, -0.0000000000000000000, -1.000000000000000000 ) ) ;
#222 = AXIS2_PLACEMENT_3D ( 'NONE', #287, #264, #313 ) ;
#223 =( NAMED_UNIT ( * ) PLANE_ANGLE_UNIT ( ) SI_UNIT ( $, .RADIAN. ) );
#224 = PRESENTATION_STYLE_ASSIGNMENT (( #284 ) ) ;
#225 = CIRCLE ( 'NONE', #113, 1.050000000000000000 ) ;
#226 = ORIENTED_EDGE ( 'NONE', *, *, #136, .T. ) ;
#227 =( NAMED_UNIT ( * ) SI_UNIT ( $, .STERADIAN. ) SOLID_ANGLE_UNIT ( ) );
#228 = SURFACE_SIDE_STYLE ('',( #363 ) ) ;
#229 = ORIENTED_EDGE ( 'NONE', *, *, #167, .F. ) ;
#230 = DIRECTION ( 'NONE',  ( 0.0000000000000000000, 0.0000000000000000000, -1.000000000000000000 ) ) ;
#231 = MANIFOLD_SOLID_BREP ( 'Pin 1', #383 ) ;
#232 = CARTESIAN_POINT ( 'NONE',  ( 0.3499999999999999800, 0.0000000000000000000, 0.0000000000000000000 ) ) ;
#233 = SURFACE_STYLE_FILL_AREA ( #273 ) ;
#234 = FACE_OUTER_BOUND ( 'NONE', #181, .T. ) ;
#235 = ORIENTED_EDGE ( 'NONE', *, *, #21, .F. ) ;
#236 = ADVANCED_FACE ( 'NONE', ( #97 ), #174, .T. ) ;
#237 = ORIENTED_EDGE ( 'NONE', *, *, #178, .T. ) ;
#238 = DIRECTION ( 'NONE',  ( 0.0000000000000000000, 0.0000000000000000000, 1.000000000000000000 ) ) ;
#239 = EDGE_CURVE ( 'NONE', #89, #144, #334, .T. ) ;
#240 = UNCERTAINTY_MEASURE_WITH_UNIT (LENGTH_MEASURE( 1.000000000000000100E-005 ), #96, 'distance_accuracy_value', 'NONE');
#241 = PRODUCT_DEFINITION_SHAPE ( 'NONE', 'NONE',  #119 ) ;
#242 = ADVANCED_FACE ( 'NONE', ( #246 ), #107, .T. ) ;
#243 = DIRECTION ( 'NONE',  ( 0.0000000000000000000, -1.000000000000000000, 0.0000000000000000000 ) ) ;
#244 = CARTESIAN_POINT ( 'NONE',  ( 0.0000000000000000000, 6.200000000000000200, 0.7500000000000002200 ) ) ;
#245 = AXIS2_PLACEMENT_3D ( 'NONE', #333, #146, #148 ) ;
#246 = FACE_OUTER_BOUND ( 'NONE', #293, .T. ) ;
#247 = FACE_OUTER_BOUND ( 'NONE', #278, .T. ) ;
#248 = CARTESIAN_POINT ( 'NONE',  ( 0.0000000000000000000, 0.0000000000000000000, 0.0000000000000000000 ) ) ;
#249 = VERTEX_POINT ( 'NONE', #360 ) ;
#250 = EDGE_CURVE ( 'NONE', #53, #396, #225, .T. ) ;
#251 = PLANE ( 'NONE',  #288 ) ;
#252 = DIRECTION ( 'NONE',  ( 0.0000000000000000000, -0.0000000000000000000, 1.000000000000000000 ) ) ;
#253 = VECTOR ( 'NONE', #294, 1000.000000000000000 ) ;
#254 = ORIENTED_EDGE ( 'NONE', *, *, #136, .F. ) ;
#255 = AXIS2_PLACEMENT_3D ( 'NONE', #177, #325, #330 ) ;
#256 =( NAMED_UNIT ( * ) PLANE_ANGLE_UNIT ( ) SI_UNIT ( $, .RADIAN. ) );
#257 = APPLICATION_PROTOCOL_DEFINITION ( 'draft international standard', 'automotive_design', 1998, #94 ) ;
#258 = EDGE_CURVE ( 'NONE', #53, #349, #171, .T. ) ;
#259 = APPLICATION_PROTOCOL_DEFINITION ( 'draft international standard', 'automotive_design', 1998, #35 ) ;
#260 = CIRCLE ( 'NONE', #214, 0.1300000000000000000 ) ;
#261 = VECTOR ( 'NONE', #182, 1000.000000000000000 ) ;
#262 = CARTESIAN_POINT ( 'NONE',  ( 1.285879139104720700E-016, 5.899999999999999500, 1.050000000000000000 ) ) ;
#263 = UNCERTAINTY_MEASURE_WITH_UNIT (LENGTH_MEASURE( 1.000000000000000100E-005 ), #92, 'distance_accuracy_value', 'NONE');
#264 = DIRECTION ( 'NONE',  ( -0.0000000000000000000, -1.000000000000000000, -0.0000000000000000000 ) ) ;
#265 =( NAMED_UNIT ( * ) PLANE_ANGLE_UNIT ( ) SI_UNIT ( $, .RADIAN. ) );
#266 = SURFACE_STYLE_FILL_AREA ( #6 ) ;
#267 = EDGE_CURVE ( 'NONE', #9, #110, #395, .T. ) ;
#268 = CYLINDRICAL_SURFACE ( 'NONE', #222, 1.050000000000000000 ) ;
#269 = ORIENTED_EDGE ( 'NONE', *, *, #267, .F. ) ;
#270 = AXIS2_PLACEMENT_3D ( 'NONE', #309, #243, #277 ) ;
#271 = EDGE_CURVE ( 'NONE', #396, #192, #8, .T. ) ;
#272 = UNCERTAINTY_MEASURE_WITH_UNIT (LENGTH_MEASURE( 1.000000000000000100E-005 ), #341, 'distance_accuracy_value', 'NONE');
#273 = FILL_AREA_STYLE ('',( #328 ) ) ;
#274 = ADVANCED_FACE ( 'NONE', ( #234 ), #139, .F. ) ;
#275 = DIRECTION ( 'NONE',  ( 0.0000000000000000000, 0.0000000000000000000, 1.000000000000000000 ) ) ;
#276 = PRESENTATION_LAYER_ASSIGNMENT (  '', '', ( #3 ) ) ;
#277 = DIRECTION ( 'NONE',  ( 0.0000000000000000000, 0.0000000000000000000, -1.000000000000000000 ) ) ;
#278 = EDGE_LOOP ( 'NONE', ( #23, #69, #137, #188 ) ) ;
#279 = AXIS2_PLACEMENT_3D ( 'NONE', #67, #162, #319 ) ;
#280 = DIRECTION ( 'NONE',  ( -0.0000000000000000000, 1.000000000000000000, -0.0000000000000000000 ) ) ;
#281 =( LENGTH_UNIT ( ) NAMED_UNIT ( * ) SI_UNIT ( .MILLI., .METRE. ) );
#282 = ORIENTED_EDGE ( 'NONE', *, *, #326, .F. ) ;
#283 = PRESENTATION_LAYER_ASSIGNMENT (  '', '', ( #216 ) ) ;
#284 = SURFACE_STYLE_USAGE ( .BOTH. , #4 ) ;
#285 = FACE_OUTER_BOUND ( 'NONE', #129, .T. ) ;
#286 = ORIENTED_EDGE ( 'NONE', *, *, #394, .T. ) ;
#287 = CARTESIAN_POINT ( 'NONE',  ( 0.0000000000000000000, 6.200000000000000200, 0.0000000000000000000 ) ) ;
#288 = AXIS2_PLACEMENT_3D ( 'NONE', #28, #90, #122 ) ;
#289 = FILL_AREA_STYLE_COLOUR ( '', #297 ) ;
#290 = MECHANICAL_DESIGN_GEOMETRIC_PRESENTATION_REPRESENTATION (  '', ( #3 ), #104 ) ;
#291 = FACE_OUTER_BOUND ( 'NONE', #98, .T. ) ;
#292 = CARTESIAN_POINT ( 'NONE',  ( 0.3499999999999999800, 0.0000000000000000000, -0.1300000000000000000 ) ) ;
#293 = EDGE_LOOP ( 'NONE', ( #269, #254, #286, #36 ) ) ;
#294 = DIRECTION ( 'NONE',  ( -0.0000000000000000000, 1.000000000000000000, -0.0000000000000000000 ) ) ;
#295 = AXIS2_PLACEMENT_3D ( 'NONE', #377, #73, #275 ) ;
#296 = DIRECTION ( 'NONE',  ( 0.0000000000000000000, 1.000000000000000000, 0.0000000000000000000 ) ) ;
#297 = COLOUR_RGB ( '',0.7921568627450980000, 0.8196078431372548800, 0.9333333333333333500 ) ;
#298 = ORIENTED_EDGE ( 'NONE', *, *, #198, .T. ) ;
#299 = AXIS2_PLACEMENT_3D ( 'NONE', #81, #112, #355 ) ;
#300 = CARTESIAN_POINT ( 'NONE',  ( 1.102182119232618000E-016, 6.200000000000000200, -0.7500000000000002200 ) ) ;
#301 = CIRCLE ( 'NONE', #372, 1.050000000000000000 ) ;
#302 = ADVANCED_FACE ( 'NONE', ( #315 ), #365, .F. ) ;
#303 = DIRECTION ( 'NONE',  ( -0.0000000000000000000, -1.000000000000000000, -0.0000000000000000000 ) ) ;
#304 = ADVANCED_BREP_SHAPE_REPRESENTATION ( 'ECS-.655-12.5-13', ( #61, #310, #231, #186 ), #306 ) ;
#305 = FILL_AREA_STYLE_COLOUR ( '', #155 ) ;
#306 =( GEOMETRIC_REPRESENTATION_CONTEXT ( 3 ) GLOBAL_UNCERTAINTY_ASSIGNED_CONTEXT ( ( #272 ) ) GLOBAL_UNIT_ASSIGNED_CONTEXT ( ( #341, #256, #193 ) ) REPRESENTATION_CONTEXT ( 'NONE', 'WORKASPACE' ) );
#307 = CIRCLE ( 'NONE', #31, 0.7500000000000002200 ) ;
#308 = VERTEX_POINT ( 'NONE', #361 ) ;
#309 = CARTESIAN_POINT ( 'NONE',  ( 0.3499999999999999800, 0.0000000000000000000, 0.0000000000000000000 ) ) ;
#310 = MANIFOLD_SOLID_BREP ( 'Pin 2', #369 ) ;
#311 = LINE ( 'NONE', #168, #165 ) ;
#312 = MECHANICAL_DESIGN_GEOMETRIC_PRESENTATION_REPRESENTATION (  '', ( #41 ), #392 ) ;
#313 = DIRECTION ( 'NONE',  ( 0.0000000000000000000, 0.0000000000000000000, -1.000000000000000000 ) ) ;
#314 = EDGE_CURVE ( 'NONE', #396, #53, #64, .T. ) ;
#315 = FACE_OUTER_BOUND ( 'NONE', #80, .T. ) ;
#316 = CARTESIAN_POINT ( 'NONE',  ( 0.0000000000000000000, 6.200000000000000200, 0.0000000000000000000 ) ) ;
#317 = ORIENTED_EDGE ( 'NONE', *, *, #167, .T. ) ;
#318 = DIRECTION ( 'NONE',  ( 0.0000000000000000000, -1.000000000000000000, 0.0000000000000000000 ) ) ;
#319 = DIRECTION ( 'NONE',  ( 0.0000000000000000000, 0.0000000000000000000, -1.000000000000000000 ) ) ;
#320 = DIRECTION ( 'NONE',  ( 0.0000000000000000000, 0.0000000000000000000, -1.000000000000000000 ) ) ;
#321 = ORIENTED_EDGE ( 'NONE', *, *, #198, .F. ) ;
#322 = DIRECTION ( 'NONE',  ( 0.0000000000000000000, 0.0000000000000000000, -1.000000000000000000 ) ) ;
#323 = EDGE_LOOP ( 'NONE', ( #138, #33, #199, #65 ) ) ;
#324 = UNCERTAINTY_MEASURE_WITH_UNIT (LENGTH_MEASURE( 1.000000000000000100E-005 ), #141, 'distance_accuracy_value', 'NONE');
#325 = DIRECTION ( 'NONE',  ( 0.0000000000000000000, -1.000000000000000000, 0.0000000000000000000 ) ) ;
#326 = EDGE_CURVE ( 'NONE', #396, #397, #126, .T. ) ;
#327 = SURFACE_STYLE_USAGE ( .BOTH. , #211 ) ;
#328 = FILL_AREA_STYLE_COLOUR ( '', #158 ) ;
#329 = EDGE_LOOP ( 'NONE', ( #47, #336 ) ) ;
#330 = DIRECTION ( 'NONE',  ( 0.0000000000000000000, 0.0000000000000000000, -1.000000000000000000 ) ) ;
#331 = DIRECTION ( 'NONE',  ( -0.0000000000000000000, -1.000000000000000000, -0.0000000000000000000 ) ) ;
#332 = AXIS2_PLACEMENT_3D ( 'NONE', #248, #215, #218 ) ;
#333 = CARTESIAN_POINT ( 'NONE',  ( 0.3499999999999999800, -10.00000000000000000, 0.0000000000000000000 ) ) ;
#334 = CIRCLE ( 'NONE', #62, 0.1300000000000000000 ) ;
#335 = AXIS2_PLACEMENT_3D ( 'NONE', #316, #203, #77 ) ;
#336 = ORIENTED_EDGE ( 'NONE', *, *, #194, .F. ) ;
#337 = DIRECTION ( 'NONE',  ( 0.0000000000000000000, 0.0000000000000000000, 1.000000000000000000 ) ) ;
#338 = DIRECTION ( 'NONE',  ( 0.0000000000000000000, -0.0000000000000000000, 1.000000000000000000 ) ) ;
#339 = UNCERTAINTY_MEASURE_WITH_UNIT (LENGTH_MEASURE( 1.000000000000000100E-005 ), #281, 'distance_accuracy_value', 'NONE');
#340 = ORIENTED_EDGE ( 'NONE', *, *, #258, .F. ) ;
#341 =( LENGTH_UNIT ( ) NAMED_UNIT ( * ) SI_UNIT ( .MILLI., .METRE. ) );
#342 = CARTESIAN_POINT ( 'NONE',  ( 1.285879139104720700E-016, 0.0000000000000000000, 1.050000000000000000 ) ) ;
#343 = CARTESIAN_POINT ( 'NONE',  ( 0.0000000000000000000, 0.0000000000000000000, 0.0000000000000000000 ) ) ;
#344 = CIRCLE ( 'NONE', #255, 0.1300000000000000000 ) ;
#345 = DIRECTION ( 'NONE',  ( 0.0000000000000000000, 1.000000000000000000, 0.0000000000000000000 ) ) ;
#346 = ORIENTED_EDGE ( 'NONE', *, *, #271, .T. ) ;
#347 = EDGE_CURVE ( 'NONE', #397, #34, #362, .T. ) ;
#348 = PRESENTATION_LAYER_ASSIGNMENT (  '', '', ( #66 ) ) ;
#349 = VERTEX_POINT ( 'NONE', #244 ) ;
#350 = EDGE_LOOP ( 'NONE', ( #205, #346, #59, #340 ) ) ;
#351 = CARTESIAN_POINT ( 'NONE',  ( 0.3499999999999999800, -10.00000000000000000, 0.1300000000000000000 ) ) ;
#352 = AXIS2_PLACEMENT_3D ( 'NONE', #102, #132, #164 ) ;
#353 = ADVANCED_FACE ( 'NONE', ( #291 ), #145, .T. ) ;
#354 = EDGE_LOOP ( 'NONE', ( #166, #210 ) ) ;
#355 = DIRECTION ( 'NONE',  ( 0.0000000000000000000, 0.0000000000000000000, 1.000000000000000000 ) ) ;
#356 = ORIENTED_EDGE ( 'NONE', *, *, #152, .F. ) ;
#357 = DIRECTION ( 'NONE',  ( -0.0000000000000000000, -1.000000000000000000, -0.0000000000000000000 ) ) ;
#358 = EDGE_CURVE ( 'NONE', #308, #18, #84, .T. ) ;
#359 = ADVANCED_FACE ( 'NONE', ( #2 ), #209, .T. ) ;
#360 = CARTESIAN_POINT ( 'NONE',  ( -0.3499999999999999800, 0.0000000000000000000, 0.1300000000000000000 ) ) ;
#361 = CARTESIAN_POINT ( 'NONE',  ( 0.3499999999999999800, 0.0000000000000000000, 0.1300000000000000000 ) ) ;
#362 = CIRCLE ( 'NONE', #332, 1.050000000000000000 ) ;
#363 = SURFACE_STYLE_FILL_AREA ( #11 ) ;
#364 = FILL_AREA_STYLE ('',( #305 ) ) ;
#365 = PLANE ( 'NONE',  #212 ) ;
#366 = FILL_AREA_STYLE_COLOUR ( '', #202 ) ;
#367 = AXIS2_PLACEMENT_3D ( 'NONE', #201, #318, #159 ) ;
#368 = LINE ( 'NONE', #371, #51 ) ;
#369 = CLOSED_SHELL ( 'NONE', ( #184, #359, #26, #274 ) ) ;
#370 = AXIS2_PLACEMENT_3D ( 'NONE', #151, #393, #54 ) ;
#371 = CARTESIAN_POINT ( 'NONE',  ( 1.285879139104720700E-016, 6.200000000000000200, 1.050000000000000000 ) ) ;
#372 = AXIS2_PLACEMENT_3D ( 'NONE', #176, #296, #384 ) ;
#373 = CARTESIAN_POINT ( 'NONE',  ( -0.3499999999999999800, -10.00000000000000000, -0.1300000000000000000 ) ) ;
#374 = FACE_OUTER_BOUND ( 'NONE', #350, .T. ) ;
#375 = VERTEX_POINT ( 'NONE', #185 ) ;
#376 = AXIS2_PLACEMENT_3D ( 'NONE', #121, #331, #337 ) ;
#377 = CARTESIAN_POINT ( 'NONE',  ( 0.0000000000000000000, 6.200000000000000200, 0.0000000000000000000 ) ) ;
#378 = SHAPE_DEFINITION_REPRESENTATION ( #241, #304 ) ;
#379 = PRESENTATION_STYLE_ASSIGNMENT (( #327 ) ) ;
#380 = DIRECTION ( 'NONE',  ( -0.0000000000000000000, 1.000000000000000000, -0.0000000000000000000 ) ) ;
#381 = EDGE_LOOP ( 'NONE', ( #226, #317 ) ) ;
#382 = ADVANCED_FACE ( 'NONE', ( #27 ), #251, .F. ) ;
#383 = CLOSED_SHELL ( 'NONE', ( #387, #242, #236, #382 ) ) ;
#384 = DIRECTION ( 'NONE',  ( 0.0000000000000000000, 0.0000000000000000000, 1.000000000000000000 ) ) ;
#385 = MECHANICAL_DESIGN_GEOMETRIC_PRESENTATION_REPRESENTATION (  '', ( #216 ), #43 ) ;
#386 = CARTESIAN_POINT ( 'NONE',  ( 0.3499999999999999800, 0.0000000000000000000, 0.0000000000000000000 ) ) ;
#387 = ADVANCED_FACE ( 'NONE', ( #285 ), #388, .T. ) ;
#388 = CYLINDRICAL_SURFACE ( 'NONE', #370, 0.1300000000000000000 ) ;
#389 = CIRCLE ( 'NONE', #295, 0.7500000000000002200 ) ;
#390 = ORIENTED_EDGE ( 'NONE', *, *, #25, .T. ) ;
#391 = CARTESIAN_POINT ( 'NONE',  ( 0.0000000000000000000, 6.200000000000000200, 0.0000000000000000000 ) ) ;
#392 =( GEOMETRIC_REPRESENTATION_CONTEXT ( 3 ) GLOBAL_UNCERTAINTY_ASSIGNED_CONTEXT ( ( #263 ) ) GLOBAL_UNIT_ASSIGNED_CONTEXT ( ( #92, #223, #191 ) ) REPRESENTATION_CONTEXT ( 'NONE', 'WORKASPACE' ) );
#393 = DIRECTION ( 'NONE',  ( -0.0000000000000000000, 1.000000000000000000, -0.0000000000000000000 ) ) ;
#394 = EDGE_CURVE ( 'NONE', #375, #249, #74, .T. ) ;
#395 = LINE ( 'NONE', #180, #261 ) ;
#396 = VERTEX_POINT ( 'NONE', #147 ) ;
#397 = VERTEX_POINT ( 'NONE', #120 ) ;
#398 = DIRECTION ( 'NONE',  ( 1.000000000000000000, -0.0000000000000000000, 1.224646799147353200E-016 ) ) ;
ENDSEC;
END-ISO-10303-21;
